<mxfile host="65bd71144e">
    <diagram id="j3TWoaB0xAbFtwGW1Wx6" name="Page-1">
        <mxGraphModel dx="2447" dy="368" grid="1" gridSize="10" guides="1" tooltips="1" connect="1" arrows="1" fold="1" page="1" pageScale="1" pageWidth="850" pageHeight="1100" math="0" shadow="1">
            <root>
                <mxCell id="0"/>
                <mxCell id="1" parent="0"/>
                <mxCell id="6" style="edgeStyle=none;html=1;" parent="1" source="2" target="5" edge="1">
                    <mxGeometry relative="1" as="geometry"/>
                </mxCell>
                <mxCell id="2" value="Сервер" style="rounded=0;whiteSpace=wrap;html=1;" parent="1" vertex="1">
                    <mxGeometry x="380" y="150" width="120" height="60" as="geometry"/>
                </mxCell>
                <mxCell id="8" style="edgeStyle=none;html=1;entryX=0;entryY=0.5;entryDx=0;entryDy=0;" parent="1" source="4" target="9" edge="1">
                    <mxGeometry relative="1" as="geometry">
                        <mxPoint x="600" y="330" as="targetPoint"/>
                    </mxGeometry>
                </mxCell>
                <mxCell id="4" value="клиент" style="rounded=0;whiteSpace=wrap;html=1;" parent="1" vertex="1">
                    <mxGeometry x="370" y="410" width="120" height="60" as="geometry"/>
                </mxCell>
                <mxCell id="7" style="edgeStyle=none;html=1;" parent="1" source="5" target="4" edge="1">
                    <mxGeometry relative="1" as="geometry"/>
                </mxCell>
                <mxCell id="5" value="Команда обрабатывается" style="whiteSpace=wrap;html=1;" parent="1" vertex="1">
                    <mxGeometry x="180" y="280" width="120" height="60" as="geometry"/>
                </mxCell>
                <mxCell id="10" style="edgeStyle=none;html=1;" parent="1" source="9" target="2" edge="1">
                    <mxGeometry relative="1" as="geometry"/>
                </mxCell>
                <mxCell id="9" value="кодированный вывод командной строки" style="whiteSpace=wrap;html=1;" parent="1" vertex="1">
                    <mxGeometry x="600" y="280" width="120" height="60" as="geometry"/>
                </mxCell>
                <mxCell id="11" value="Серверу отправлется результат" style="text;html=1;align=center;verticalAlign=middle;resizable=0;points=[];autosize=1;strokeColor=none;fillColor=none;" parent="1" vertex="1">
                    <mxGeometry x="530" y="190" width="200" height="30" as="geometry"/>
                </mxCell>
                <mxCell id="15" style="edgeStyle=none;html=1;" parent="1" source="12" edge="1">
                    <mxGeometry relative="1" as="geometry">
                        <mxPoint x="-640" y="210" as="targetPoint"/>
                    </mxGeometry>
                </mxCell>
                <mxCell id="12" value="start_interface" style="whiteSpace=wrap;html=1;" parent="1" vertex="1">
                    <mxGeometry x="-880" y="280" width="120" height="60" as="geometry"/>
                </mxCell>
                <mxCell id="13" value="Как происходит запуск сервера" style="text;html=1;align=center;verticalAlign=middle;resizable=0;points=[];autosize=1;strokeColor=default;fillColor=none;fontSize=20;" parent="1" vertex="1">
                    <mxGeometry x="-585" y="63" width="310" height="40" as="geometry"/>
                </mxCell>
                <mxCell id="17" style="edgeStyle=none;html=1;" parent="1" source="16" edge="1">
                    <mxGeometry relative="1" as="geometry">
                        <mxPoint x="-360" y="205" as="targetPoint"/>
                    </mxGeometry>
                </mxCell>
                <mxCell id="16" value="Локальный сервер&lt;div&gt;условно 127.0.0.1:8888&lt;/div&gt;" style="whiteSpace=wrap;html=1;" parent="1" vertex="1">
                    <mxGeometry x="-640" y="175" width="120" height="60" as="geometry"/>
                </mxCell>
                <mxCell id="18" value="Выделенный сервер&lt;div&gt;ngrok или подобное ему&lt;/div&gt;" style="whiteSpace=wrap;html=1;" parent="1" vertex="1">
                    <mxGeometry x="-360" y="175" width="120" height="60" as="geometry"/>
                </mxCell>
                <mxCell id="19" value="Если используется условный ngrok для перенаправление с выделенного публичного сервера на локальный" style="text;html=1;align=center;verticalAlign=middle;whiteSpace=wrap;rounded=0;fontSize=5;" parent="1" vertex="1">
                    <mxGeometry x="-520" y="165" width="160" height="30" as="geometry"/>
                </mxCell>
                <mxCell id="21" value="СТОИТ УЧЕСТЬ!&lt;div&gt;&lt;br&gt;&lt;/div&gt;" style="text;html=1;align=center;verticalAlign=middle;whiteSpace=wrap;rounded=0;" parent="1" vertex="1">
                    <mxGeometry x="-510" y="220" width="140" height="30" as="geometry"/>
                </mxCell>
                <mxCell id="22" value="&lt;span style=&quot;font-size: 10px;&quot;&gt;клиент подключается к ПУБЛИЧНОМУ СЕРВЕРУ, пока в свою очередь сама программа работает на локальном, выделенный сервер просто перенаправляет трафик с публичного на локальный&lt;/span&gt;" style="text;html=1;align=center;verticalAlign=middle;whiteSpace=wrap;rounded=0;" parent="1" vertex="1">
                    <mxGeometry x="-555" y="240" width="230" height="120" as="geometry"/>
                </mxCell>
                <mxCell id="23" value="в данный момент эта диаграмма может быть НЕАКТУАЛЬНОЙ в связи с спецификой работы серверно-клиентской части" style="text;html=1;align=center;verticalAlign=middle;whiteSpace=wrap;rounded=0;" parent="1" vertex="1">
                    <mxGeometry x="-710" y="130" width="400" height="30" as="geometry"/>
                </mxCell>
            </root>
        </mxGraphModel>
    </diagram>
</mxfile>